<?xml version="1.0" standalone="no"?>
<!DOCTYPE svg PUBLIC "-//W3C//DTD SVG 20010904//EN"
 "http://www.w3.org/TR/2001/REC-SVG-20010904/DTD/svg10.dtd">
<svg version="1.0" xmlns="http://www.w3.org/2000/svg"
 width="1300.000000pt" height="1300.000000pt" viewBox="0 0 1300.000000 1300.000000"
 preserveAspectRatio="xMidYMid meet">
<metadata>
Created by potrace 1.11, written by Peter Selinger 2001-2013
</metadata>
<g transform="translate(0.000000,1300.000000) scale(0.100000,-0.100000)"
fill="#000000" stroke="none">
<path d="M6095 12026 c-82 -7 -163 -16 -180 -19 -16 -4 -52 -9 -80 -13 -27 -3
-55 -10 -62 -16 -57 -46 -114 -821 -143 -1938 -5 -217 -12 -496 -16 -620 l-6
-225 29 25 28 25 -27 -31 -28 -30 0 -265 c0 -145 -4 -269 -8 -275 -5 -7 -104
-13 -297 -18 -159 -4 -315 -9 -345 -11 -30 -2 -129 -6 -220 -10 -780 -29
-1606 -103 -2094 -186 -372 -63 -637 -150 -644 -210 -1 -8 -6 -43 -12 -79 -25
-161 -31 -231 -40 -474 -9 -239 -8 -261 7 -279 10 -10 13 -17 8 -15 -10 3 -15
-4 -15 -23 0 -5 5 -7 12 -3 6 4 8 3 5 -3 -3 -5 110 -125 252 -267 l259 -259
573 12 c316 7 1021 15 1567 18 l992 6 0 -274 c0 -151 3 -426 7 -612 l6 -337
26 22 26 23 -25 -28 c-24 -28 -25 -32 -22 -165 11 -528 31 -1081 58 -1567 14
-264 18 -293 37 -320 15 -21 16 -26 4 -16 -15 12 -17 10 -17 -16 0 -49 30
-343 45 -444 7 -51 13 -95 11 -96 -10 -10 -470 65 -627 102 -82 19 -100 19
-93 0 4 -10 0 -15 -16 -15 -11 0 -18 -5 -15 -10 3 -6 0 -10 -7 -10 -7 0 -23
-17 -35 -39 l-22 -38 20 -38 c26 -48 33 -55 89 -88 83 -48 179 -79 395 -126
222 -48 840 -106 870 -81 10 8 15 8 21 -1 5 -8 3 -9 -6 -4 -9 5 -11 4 -6 -4 4
-6 12 -9 17 -5 5 3 18 0 27 -8 15 -11 16 -11 4 3 -10 14 -10 18 3 23 11 4 14
2 9 -7 -9 -15 26 14 83 67 l43 40 -32 36 -33 35 35 -32 34 -33 56 53 55 52
-53 -56 -53 -56 56 -51 c31 -29 61 -52 66 -52 6 0 8 -4 4 -9 -3 -5 0 -13 6
-17 8 -4 9 -3 5 4 -4 7 -2 12 4 12 6 0 8 5 4 12 -4 7 -3 8 5 4 6 -4 9 -11 6
-16 -3 -4 3 -14 13 -21 15 -13 16 -12 3 4 -9 12 -10 17 -2 17 7 0 9 5 5 13 -6
9 -4 9 7 1 27 -21 495 20 724 63 44 8 103 19 130 23 28 5 75 16 105 25 30 9
80 23 110 31 63 18 174 81 212 122 34 35 32 78 -5 114 -15 15 -27 32 -27 38 0
5 -9 10 -19 10 -11 0 -21 5 -23 11 -3 9 -18 9 -58 0 -210 -45 -297 -60 -480
-82 -58 -7 -108 -18 -112 -23 -5 -7 -8 -6 -8 3 0 11 -3 11 -17 0 -15 -13 -16
-11 -10 21 24 131 53 437 77 790 36 556 80 2040 80 2729 l0 294 1063 -6 c584
-4 1122 -10 1196 -14 114 -5 133 -4 126 8 -7 11 -6 12 6 3 9 -8 131 -14 384
-19 l370 -7 257 259 c175 176 259 267 264 287 8 35 -3 438 -16 546 -36 309
-38 319 -90 355 -250 173 -1623 328 -3305 373 l-250 7 -3 280 c-2 246 -5 282
-20 299 -16 20 -16 20 1 7 18 -14 18 -5 12 225 -17 666 -36 1270 -41 1362 l-7
103 -26 -23 c-25 -22 -25 -21 2 8 27 30 28 34 22 110 -3 43 -10 160 -16 259
-14 240 -46 551 -65 636 -14 64 -18 71 -50 84 -19 8 -47 14 -62 14 -33 -1
-111 7 -212 21 -115 17 -660 21 -835 6z m-379 -1148 l29 -33 -32 29 c-18 17
-33 31 -33 33 0 8 8 1 36 -29z m80 -80 l29 -33 -32 29 c-18 17 -33 31 -33 33
0 8 8 1 36 -29z m1454 29 c0 -2 -10 -12 -22 -23 l-23 -19 19 23 c18 21 26 27
26 19z m-1370 -112 c19 -19 32 -35 29 -35 -3 0 -20 16 -39 35 -19 19 -32 35
-29 35 3 0 20 -16 39 -35z m1290 32 c0 -2 -10 -12 -22 -23 l-23 -19 19 23 c18
21 26 27 26 19z m-1214 -109 l29 -33 -32 29 c-18 17 -33 31 -33 33 0 8 8 1 36
-29z m1134 29 c0 -2 -10 -12 -22 -23 l-23 -19 19 23 c18 21 26 27 26 19z
m-1054 -109 l29 -33 -32 29 c-18 17 -33 31 -33 33 0 8 8 1 36 -29z m974 29 c0
-2 -10 -12 -22 -23 l-23 -19 19 23 c18 21 26 27 26 19z m-894 -109 l29 -33
-32 29 c-18 17 -33 31 -33 33 0 8 8 1 36 -29z m814 29 c0 -2 -10 -12 -22 -23
l-23 -19 19 23 c18 21 26 27 26 19z m-730 -112 c19 -19 32 -35 29 -35 -3 0
-20 16 -39 35 -19 19 -32 35 -29 35 3 0 20 -16 39 -35z m650 32 c0 -2 -10 -12
-22 -23 l-23 -19 19 23 c18 21 26 27 26 19z m-574 -109 l29 -33 -32 29 c-31
28 -38 36 -30 36 2 0 16 -15 33 -32z m494 29 c0 -2 -10 -12 -22 -23 l-23 -19
19 23 c18 21 26 27 26 19z m-414 -109 l29 -33 -32 29 c-18 17 -33 31 -33 33 0
8 8 1 36 -29z m334 29 c0 -2 -10 -12 -22 -23 l-23 -19 19 23 c18 21 26 27 26
19z m-254 -109 l29 -33 -32 29 c-31 28 -38 36 -30 36 2 0 16 -15 33 -32z m174
29 c0 -2 -10 -12 -22 -23 l-23 -19 19 23 c18 21 26 27 26 19z m-86 -80 c20 17
21 17 4 -2 -17 -18 -17 -20 5 -45 l22 -25 -26 22 c-17 16 -29 20 -37 13 -9 -7
-9 -7 -2 2 7 8 4 18 -7 32 -17 20 -17 21 2 4 18 -17 20 -17 39 -1z m-74 -80
c0 -2 -10 -12 -22 -23 l-23 -19 19 23 c18 21 26 27 26 19z m146 -29 l29 -33
-32 29 c-31 28 -38 36 -30 36 2 0 16 -15 33 -32z m-226 -51 c0 -2 -10 -12 -22
-23 l-23 -19 19 23 c18 21 26 27 26 19z m306 -29 l29 -33 -32 29 c-31 28 -38
36 -30 36 2 0 16 -15 33 -32z m-386 -51 c0 -2 -10 -12 -22 -23 l-23 -19 19 23
c18 21 26 27 26 19z m466 -29 l29 -33 -32 29 c-31 28 -38 36 -30 36 2 0 16
-15 33 -32z m-546 -51 c0 -2 -10 -12 -22 -23 l-23 -19 19 23 c18 21 26 27 26
19z m626 -29 l29 -33 -32 29 c-31 28 -38 36 -30 36 2 0 16 -15 33 -32z m-706
-51 c0 -2 -10 -12 -22 -23 l-23 -19 19 23 c18 21 26 27 26 19z m786 -29 l29
-33 -32 29 c-31 28 -38 36 -30 36 2 0 16 -15 33 -32z m-866 -51 c0 -2 -10 -12
-22 -23 l-23 -19 19 23 c18 21 26 27 26 19z m946 -29 l29 -33 -32 29 c-31 28
-38 36 -30 36 2 0 16 -15 33 -32z m-1026 -51 c0 -2 -10 -12 -22 -23 l-23 -19
19 23 c18 21 26 27 26 19z m1106 -29 l29 -33 -32 29 c-31 28 -38 36 -30 36 2
0 16 -15 33 -32z m-1186 -51 c0 -2 -10 -12 -22 -23 l-23 -19 19 23 c18 21 26
27 26 19z m1266 -29 l29 -33 -32 29 c-31 28 -38 36 -30 36 2 0 16 -15 33 -32z
m-1346 -51 c0 -2 -10 -12 -22 -23 l-23 -19 19 23 c18 21 26 27 26 19z m1426
-29 l29 -33 -32 29 c-31 28 -38 36 -30 36 2 0 16 -15 33 -32z m-1506 -51 c0
-2 -10 -12 -22 -23 l-23 -19 19 23 c18 21 26 27 26 19z m1586 -29 l29 -33 -32
29 c-31 28 -38 36 -30 36 2 0 16 -15 33 -32z m-1821 -1748 c10 -11 16 -20 13
-20 -3 0 -13 9 -23 20 -10 11 -16 20 -13 20 3 0 13 -9 23 -20z m3610 -20 c10
-11 16 -20 13 -20 -3 0 -13 9 -23 20 -10 11 -16 20 -13 20 3 0 13 -9 23 -20z
m-3530 -60 c10 -11 16 -20 13 -20 -3 0 -13 9 -23 20 -10 11 -16 20 -13 20 3 0
13 -9 23 -20z m1905 16 c0 -2 -8 -10 -17 -17 -16 -13 -17 -12 -4 4 13 16 21
21 21 13z m1696 -28 l29 -33 -32 29 c-31 28 -38 36 -30 36 2 0 16 -15 33 -32z
m-5616 -323 c-157 -157 -287 -285 -290 -285 -3 0 123 128 280 285 157 157 287
285 290 285 3 0 -123 -128 -280 -285z m5690 250 c19 -19 32 -35 29 -35 -3 0
-20 16 -39 35 -19 19 -32 35 -29 35 3 0 20 -16 39 -35z m-3595 5 c10 -11 16
-20 13 -20 -3 0 -13 9 -23 20 -10 11 -16 20 -13 20 3 0 13 -9 23 -20z m1745
16 c0 -2 -8 -10 -17 -17 -16 -13 -17 -12 -4 4 13 16 21 21 21 13z m1930 -101
c19 -19 32 -35 29 -35 -3 0 -20 16 -39 35 -19 19 -32 35 -29 35 3 0 20 -16 39
-35z m-3595 5 c10 -11 16 -20 13 -20 -3 0 -13 9 -23 20 -10 11 -16 20 -13 20
3 0 13 -9 23 -20z m1585 16 c0 -2 -8 -10 -17 -17 -16 -13 -17 -12 -4 4 13 16
21 21 21 13z m2090 -101 c19 -19 32 -35 29 -35 -3 0 -20 16 -39 35 -19 19 -32
35 -29 35 3 0 20 -16 39 -35z m-3595 5 c10 -11 16 -20 13 -20 -3 0 -13 9 -23
20 -10 11 -16 20 -13 20 3 0 13 -9 23 -20z m1425 16 c0 -2 -8 -10 -17 -17 -16
-13 -17 -12 -4 4 13 16 21 21 21 13z m2250 -101 c19 -19 32 -35 29 -35 -3 0
-20 16 -39 35 -19 19 -32 35 -29 35 3 0 20 -16 39 -35z m-3595 5 c10 -11 16
-20 13 -20 -3 0 -13 9 -23 20 -10 11 -16 20 -13 20 3 0 13 -9 23 -20z m1265
16 c0 -2 -8 -10 -17 -17 -16 -13 -17 -12 -4 4 13 16 21 21 21 13z m2410 -101
c19 -19 32 -35 29 -35 -3 0 -20 16 -39 35 -19 19 -32 35 -29 35 3 0 20 -16 39
-35z m-3595 5 c10 -11 16 -20 13 -20 -3 0 -13 9 -23 20 -10 11 -16 20 -13 20
3 0 13 -9 23 -20z m1105 16 c0 -2 -8 -10 -17 -17 -16 -13 -17 -12 -4 4 13 16
21 21 21 13z m2570 -101 c19 -19 32 -35 29 -35 -3 0 -20 16 -39 35 -19 19 -32
35 -29 35 3 0 20 -16 39 -35z m-3595 5 c10 -11 16 -20 13 -20 -3 0 -13 9 -23
20 -10 11 -16 20 -13 20 3 0 13 -9 23 -20z m945 16 c0 -2 -8 -10 -17 -17 -16
-13 -17 -12 -4 4 13 16 21 21 21 13z m2730 -101 c19 -19 32 -35 29 -35 -3 0
-20 16 -39 35 -19 19 -32 35 -29 35 3 0 20 -16 39 -35z m-3595 5 c10 -11 16
-20 13 -20 -3 0 -13 9 -23 20 -10 11 -16 20 -13 20 3 0 13 -9 23 -20z m785 16
c0 -2 -8 -10 -17 -17 -16 -13 -17 -12 -4 4 13 16 21 21 21 13z m-705 -96 c10
-11 16 -20 13 -20 -3 0 -13 9 -23 20 -10 11 -16 20 -13 20 3 0 13 -9 23 -20z
m625 16 c0 -2 -8 -10 -17 -17 -16 -13 -17 -12 -4 4 13 16 21 21 21 13z m-545
-96 c10 -11 16 -20 13 -20 -3 0 -13 9 -23 20 -10 11 -16 20 -13 20 3 0 13 -9
23 -20z m465 16 c0 -2 -8 -10 -17 -17 -16 -13 -17 -12 -4 4 13 16 21 21 21 13z
m-385 -96 c10 -11 16 -20 13 -20 -3 0 -13 9 -23 20 -10 11 -16 20 -13 20 3 0
13 -9 23 -20z m305 16 c0 -2 -8 -10 -17 -17 -16 -13 -17 -12 -4 4 13 16 21 21
21 13z m-225 -96 c10 -11 16 -20 13 -20 -3 0 -13 9 -23 20 -10 11 -16 20 -13
20 3 0 13 -9 23 -20z m145 16 c0 -2 -8 -10 -17 -17 -16 -13 -17 -12 -4 4 13
16 21 21 21 13z m-58 -58 l-22 -22 23 -26 22 -25 -25 22 c-21 19 -29 20 -40
10 -13 -10 -13 -10 -3 2 10 12 9 19 -5 35 -17 21 -17 21 4 3 20 -16 22 -16 39
3 10 11 21 20 24 20 3 0 -4 -10 -17 -22z m-102 -102 c0 -2 -8 -10 -17 -17 -16
-13 -17 -12 -4 4 13 16 21 21 21 13z m175 -16 c10 -11 16 -20 13 -20 -3 0 -13
9 -23 20 -10 11 -16 20 -13 20 3 0 13 -9 23 -20z m-255 -64 c0 -2 -8 -10 -17
-17 -16 -13 -17 -12 -4 4 13 16 21 21 21 13z m335 -16 c10 -11 16 -20 13 -20
-3 0 -13 9 -23 20 -10 11 -16 20 -13 20 3 0 13 -9 23 -20z m-415 -64 c0 -2 -8
-10 -17 -17 -16 -13 -17 -12 -4 4 13 16 21 21 21 13z m495 -16 c10 -11 16 -20
13 -20 -3 0 -13 9 -23 20 -10 11 -16 20 -13 20 3 0 13 -9 23 -20z m-575 -64
c0 -2 -8 -10 -17 -17 -16 -13 -17 -12 -4 4 13 16 21 21 21 13z m655 -16 c10
-11 16 -20 13 -20 -3 0 -13 9 -23 20 -10 11 -16 20 -13 20 3 0 13 -9 23 -20z
m-735 -64 c0 -2 -8 -10 -17 -17 -16 -13 -17 -12 -4 4 13 16 21 21 21 13z m815
-16 c10 -11 16 -20 13 -20 -3 0 -13 9 -23 20 -10 11 -16 20 -13 20 3 0 13 -9
23 -20z m-895 -64 c0 -2 -8 -10 -17 -17 -16 -13 -17 -12 -4 4 13 16 21 21 21
13z m975 -16 c10 -11 16 -20 13 -20 -3 0 -13 9 -23 20 -10 11 -16 20 -13 20 3
0 13 -9 23 -20z m-1055 -64 c0 -2 -8 -10 -17 -17 -16 -13 -17 -12 -4 4 13 16
21 21 21 13z m1135 -16 c10 -11 16 -20 13 -20 -3 0 -13 9 -23 20 -10 11 -16
20 -13 20 3 0 13 -9 23 -20z m-1215 -64 c0 -2 -8 -10 -17 -17 -16 -13 -17 -12
-4 4 13 16 21 21 21 13z m1295 -16 c10 -11 16 -20 13 -20 -3 0 -13 9 -23 20
-10 11 -16 20 -13 20 3 0 13 -9 23 -20z m-1375 -64 c0 -2 -8 -10 -17 -17 -16
-13 -17 -12 -4 4 13 16 21 21 21 13z m1455 -16 c10 -11 16 -20 13 -20 -3 0
-13 9 -23 20 -10 11 -16 20 -13 20 3 0 13 -9 23 -20z m-1505 -33 c0 -2 -15
-16 -32 -33 l-33 -29 29 33 c28 30 36 37 36 29z m1585 -47 c10 -11 16 -20 13
-20 -3 0 -13 9 -23 20 -10 11 -16 20 -13 20 3 0 13 -9 23 -20z m-1535 -2185
c13 -14 21 -25 18 -25 -2 0 -15 11 -28 25 -13 14 -21 25 -18 25 2 0 15 -11 28
-25z m1480 22 c0 -2 -10 -12 -22 -23 l-23 -19 19 23 c18 21 26 27 26 19z
m-1405 -97 c10 -11 16 -20 13 -20 -3 0 -13 9 -23 20 -10 11 -16 20 -13 20 3 0
13 -9 23 -20z m1315 7 c0 -2 -15 -16 -32 -33 l-33 -29 29 33 c28 30 36 37 36
29z m-1235 -87 c10 -11 16 -20 13 -20 -3 0 -13 9 -23 20 -10 11 -16 20 -13 20
3 0 13 -9 23 -20z m1155 7 c0 -2 -15 -16 -32 -33 l-33 -29 29 33 c28 30 36 37
36 29z m-1075 -87 c10 -11 16 -20 13 -20 -3 0 -13 9 -23 20 -10 11 -16 20 -13
20 3 0 13 -9 23 -20z m1005 17 c0 -2 -19 -21 -42 -42 l-43 -40 40 43 c36 39
45 47 45 39z m-925 -97 c10 -11 16 -20 13 -20 -3 0 -13 9 -23 20 -10 11 -16
20 -13 20 3 0 13 -9 23 -20z m835 7 c0 -2 -17 -19 -37 -38 l-38 -34 34 38 c33
34 41 42 41 34z m-755 -87 c10 -11 16 -20 13 -20 -3 0 -13 9 -23 20 -10 11
-16 20 -13 20 3 0 13 -9 23 -20z m675 6 c0 -2 -8 -10 -17 -17 -16 -13 -17 -12
-4 4 13 16 21 21 21 13z m-40 -40 c0 -2 -8 -10 -17 -17 -16 -13 -17 -12 -4 4
13 16 21 21 21 13z m-555 -46 c10 -11 16 -20 13 -20 -3 0 -13 9 -23 20 -10 11
-16 20 -13 20 3 0 13 -9 23 -20z m515 7 c0 -2 -17 -19 -37 -38 l-38 -34 34 38
c33 34 41 42 41 34z m-435 -87 c10 -11 16 -20 13 -20 -3 0 -13 9 -23 20 -10
11 -16 20 -13 20 3 0 13 -9 23 -20z m355 6 c0 -2 -8 -10 -17 -17 -16 -13 -17
-12 -4 4 13 16 21 21 21 13z m-275 -86 c10 -11 16 -20 13 -20 -3 0 -13 9 -23
20 -10 11 -16 20 -13 20 3 0 13 -9 23 -20z"/>
<path d="M3385 10609 c-162 -70 -211 -97 -263 -151 l-53 -54 -33 -154 -33
-154 -31 -8 c-18 -5 -32 -12 -32 -16 0 -4 70 -77 155 -162 l155 -155 0 47 c0
43 2 47 28 52 79 17 187 26 320 27 l149 2 6 116 c7 116 29 271 47 325 6 16 9
31 7 32 -2 2 -110 -33 -241 -77 -131 -44 -242 -78 -246 -77 -12 4 54 224 100
336 21 53 38 97 37 98 -1 1 -34 -11 -72 -27z"/>
<path d="M9543 10628 c66 -156 152 -416 142 -427 -3 -2 -406 128 -481 156 -7
3 -5 -25 7 -79 21 -99 39 -254 39 -338 l0 -60 148 0 c131 0 212 -7 320 -25
l32 -6 0 -61 0 -62 43 39 42 40 -38 -41 -38 -41 -4 -191 -3 -191 46 -6 c110
-13 233 -36 308 -58 l82 -23 -18 65 c-26 96 -88 359 -96 408 l-6 43 63 -26
c85 -35 192 -89 258 -131 29 -19 54 -33 56 -31 4 4 -109 339 -123 366 -16 28
-89 66 -222 112 l-104 37 -18 89 c-43 207 -59 261 -86 287 -15 13 -90 53 -167
87 -182 81 -189 84 -182 68z m507 -613 c-24 -25 -46 -45 -49 -45 -3 0 15 20
39 45 24 25 46 45 49 45 3 0 -15 -20 -39 -45z m-60 -58 c0 -2 -17 -19 -37 -38
l-38 -34 34 38 c33 34 41 42 41 34z m-80 -80 c0 -2 -17 -19 -37 -38 l-38 -34
34 38 c33 34 41 42 41 34z"/>
<path d="M3119 10485 c-24 -13 -45 -43 -36 -51 2 -2 19 12 37 31 37 39 37 41
-1 20z"/>
<path d="M2843 10041 c-119 -47 -159 -75 -177 -123 -26 -66 -114 -333 -111
-336 1 -1 42 22 91 51 90 54 249 127 276 127 16 0 20 19 -57 -304 -25 -104
-44 -191 -41 -193 2 -2 44 7 92 21 70 19 280 56 323 56 4 0 7 93 5 206 l-2
207 -158 158 c-87 88 -161 159 -164 159 -3 -1 -37 -13 -77 -29z"/>
<path d="M1947 7258 c2 -35 6 -88 10 -118 3 -30 6 -59 4 -63 -1 -5 3 -6 9 -2
6 4 10 -13 10 -45 0 -28 4 -49 8 -46 7 4 34 -84 47 -152 8 -43 9 -43 203 -36
103 4 194 8 202 10 8 1 17 3 20 3 7 1 -503 511 -511 511 -3 0 -4 -28 -2 -62z"/>
<path d="M10798 7063 c-136 -136 -244 -250 -240 -254 13 -12 402 -21 402 -10
0 6 -6 11 -12 11 -9 0 -9 3 1 9 8 5 16 15 17 23 12 54 26 104 33 113 14 17 42
147 47 210 2 33 6 79 9 103 2 23 2 42 -2 42 -4 0 -119 -111 -255 -247z"/>
<path d="M2842 5838 c17 -68 45 -192 62 -275 l32 -153 -22 0 c-32 0 -239 54
-303 80 -29 11 -55 19 -56 18 -2 -2 13 -57 32 -123 19 -66 39 -138 44 -159 6
-22 13 -44 17 -50 3 -6 8 -22 10 -36 2 -14 7 -26 12 -28 5 -2 7 -9 4 -17 -9
-24 49 -45 128 -46 40 -1 102 -4 138 -8 l65 -6 8 -50 c23 -131 76 -407 79
-411 2 -2 51 -13 109 -24 57 -11 138 -29 179 -40 41 -10 75 -18 76 -17 1 1
-20 67 -47 147 -26 80 -59 191 -72 248 l-25 102 24 0 c26 0 268 -50 386 -80
42 -11 78 -20 81 -20 2 0 -4 39 -13 88 -21 101 -40 277 -40 369 0 44 -4 63
-12 63 -7 0 -71 -7 -143 -15 -71 -8 -178 -15 -236 -15 l-106 0 -7 158 c-4 87
-4 214 0 281 l7 123 -94 -7 c-84 -6 -262 5 -323 21 l-24 6 30 -124z"/>
<path d="M10120 5948 c-25 -6 -119 -11 -209 -11 l-164 -1 7 -120 c4 -66 4
-191 0 -278 l-7 -158 -101 0 c-92 0 -154 5 -333 25 l-63 8 0 -65 c0 -96 -19
-271 -40 -368 -10 -47 -17 -86 -15 -88 1 -2 38 6 81 17 112 28 361 81 384 81
14 0 20 -7 20 -23 0 -33 -62 -254 -104 -371 -20 -55 -34 -101 -33 -102 1 -2
47 8 102 22 55 14 136 32 179 40 43 7 80 15 82 17 6 5 31 131 59 297 15 85 30
158 34 162 3 4 62 10 131 13 172 9 196 19 204 80 1 6 5 15 9 21 3 6 13 36 21
65 8 30 30 108 49 174 19 66 33 121 32 123 -1 1 -26 -6 -54 -18 -60 -23 -276
-80 -307 -80 -20 0 -20 2 12 153 17 83 45 207 61 275 19 76 26 122 19 121 -6
-1 -31 -6 -56 -11z"/>
<path d="M6472 2715 c-51 -55 -61 -77 -28 -58 9 5 44 6 78 3 41 -4 66 -3 71 4
5 8 10 6 17 -4 7 -11 10 -12 10 -2 0 8 -22 36 -48 64 l-48 50 -52 -57z"/>
</g>
</svg>
